<?xml version="1.0" standalone="no"?>
<!DOCTYPE svg PUBLIC "-//W3C//DTD SVG 20010904//EN"
 "http://www.w3.org/TR/2001/REC-SVG-20010904/DTD/svg10.dtd">
<svg version="1.0" xmlns="http://www.w3.org/2000/svg"
 width="500.000000pt" height="500.000000pt" viewBox="0 0 500.000000 500.000000"
 preserveAspectRatio="xMidYMid meet">

<g transform="translate(0.000000,500.000000) scale(0.100000,-0.100000)"
fill="#000000" stroke="none">
<path d="M2070 4524 c-58 -6 -108 -10 -113 -7 -4 2 -31 0 -60 -6 -28 -6 -72
-13 -97 -16 -72 -7 -184 -28 -255 -46 -22 -6 -58 -15 -80 -21 -22 -6 -49 -14
-60 -18 -11 -5 -49 -18 -85 -30 -129 -44 -284 -143 -433 -279 -129 -119 -269
-342 -337 -541 -7 -19 -16 -44 -20 -55 -8 -19 -19 -61 -26 -94 -2 -8 -6 -26
-10 -40 -4 -14 -7 -29 -6 -33 1 -4 -3 -19 -8 -34 -6 -14 -13 -43 -15 -63 -3
-20 -10 -67 -15 -106 -38 -266 -48 -783 -21 -1045 7 -74 15 -154 17 -176 1
-23 8 -61 14 -84 6 -23 9 -44 7 -47 -3 -2 1 -24 8 -48 8 -24 11 -45 8 -48 -2
-3 1 -15 7 -27 6 -11 12 -31 14 -43 1 -12 5 -29 8 -37 3 -8 15 -46 28 -85 35
-109 143 -321 209 -412 242 -328 598 -513 1136 -592 210 -31 279 -35 625 -35
488 0 687 23 1010 117 411 119 732 403 890 787 58 140 85 229 115 380 32 160
43 238 51 360 2 41 7 86 10 99 9 40 5 642 -5 726 -5 44 -9 87 -8 95 1 8 -2 44
-6 80 -20 167 -73 369 -143 546 -138 346 -436 630 -784 746 -101 34 -136 43
-292 77 -96 21 -311 48 -397 50 -36 1 -69 5 -75 8 -19 12 -698 10 -806 -3z
m475 -574 c4 -6 -1 -7 -10 -3 -10 3 -21 0 -26 -8 -5 -9 -9 -9 -9 -2 0 15 -33
10 -38 -7 -3 -9 0 -10 9 -4 12 6 12 5 1 -8 -9 -11 -9 -18 -2 -21 6 -3 5 -4 -2
-3 -18 4 -22 34 -8 51 14 17 76 20 85 5z m-18 -52 c-3 -7 -5 -2 -5 12 0 14 2
19 5 13 2 -7 2 -19 0 -25z m50 -10 c-3 -7 -5 -2 -5 12 0 14 2 19 5 13 2 -7 2
-19 0 -25z m-70 -12 c-4 -10 2 -16 16 -19 18 -4 17 -5 -5 -6 -16 0 -28 1 -28
3 0 10 13 36 17 36 3 0 3 -6 0 -14z m-27 -8 c0 -4 -4 -8 -9 -8 -6 0 -12 4 -15
8 -3 5 1 9 9 9 8 0 15 -4 15 -9z m245 -162 c114 -31 243 -87 311 -135 153
-108 290 -275 353 -432 25 -64 71 -236 71 -269 0 -7 -315 -10 -945 -10 l-945
0 0 38 c0 48 33 183 59 247 74 175 184 312 347 428 85 61 245 124 371 147 74
14 309 5 378 -14z m1003 -1426 c50 -31 43 -57 -40 -149 -40 -43 -98 -101 -128
-127 -30 -26 -93 -84 -140 -129 -47 -45 -103 -95 -125 -111 -22 -16 -65 -52
-95 -80 -118 -110 -247 -216 -291 -239 -25 -13 -72 -29 -106 -36 -74 -15 -138
-7 -468 57 -274 54 -339 57 -443 19 -41 -15 -75 -25 -77 -23 -1 2 -37 63 -80
136 -42 74 -91 157 -109 185 -18 29 -43 71 -54 93 l-21 42 115 93 c64 52 139
111 167 131 67 49 180 88 252 88 62 0 202 -42 318 -95 111 -50 165 -63 305
-75 175 -14 213 -24 256 -67 40 -40 44 -59 21 -103 -16 -31 -49 -52 -98 -64
-25 -6 -164 0 -439 19 -61 4 -79 2 -92 -11 -19 -19 -21 -67 -3 -82 7 -6 83
-16 168 -22 85 -5 191 -13 235 -16 174 -14 276 25 327 125 15 31 27 71 27 93
0 30 4 38 18 38 39 0 144 62 222 132 217 193 294 229 378 178z m-2306 -387
c18 -20 138 -220 138 -230 0 -3 46 -82 101 -176 56 -93 104 -178 106 -188 4
-14 -18 -29 -116 -78 -66 -34 -123 -61 -126 -61 -8 0 -329 661 -323 665 2 1
28 12 58 24 30 12 71 31 90 41 44 24 53 24 72 3z"/>
<path d="M1545 1370 c-37 -41 11 -104 61 -81 50 23 34 101 -21 101 -12 0 -30
-9 -40 -20z"/>
</g>
</svg>
